<svg xmlns="http://www.w3.org/2000/svg" width="60" height="60" viewBox="0 0 60 60">
  <g id="hand-wash" transform="translate(0.254 0)">
    <path id="Path_470" data-name="Path 470" d="M4.431,42.346H9.263A6.918,6.918,0,0,0,12.6,44.327a4.5,4.5,0,0,0,.011,5.792l4.325,5.145a4.831,4.831,0,0,0,6.645.658l3.736-2.952a7.539,7.539,0,0,0,5.44-1.565l6.671-5.276A5.806,5.806,0,0,0,44.193,48.6h9.854a5.792,5.792,0,0,0,4.038-1.629,5.441,5.441,0,0,0,1.66-3.923V20.211A5.567,5.567,0,0,0,55.4,14.8V12.2a2.714,2.714,0,0,0-2.74-2.63h-.417V7.525h.86a.947.947,0,0,0,.982-.874V.883A.955.955,0,0,0,53.106,0H45.135a.922.922,0,0,0-.648.256.865.865,0,0,0-.268.627V3.009a4.741,4.741,0,0,0-2.586-.873l-6.837-.1h-.01a.929.929,0,0,0-.921.907.917.917,0,0,0,.911.915l6.83.076a2.585,2.585,0,0,1,2.578,2.586.817.817,0,0,0,.047.286.907.907,0,0,0,.9.714h.795V9.566h-.352A2.656,2.656,0,0,0,42.9,12.2v2.6a5.687,5.687,0,0,0-4.474,5.413V26.84a.888.888,0,0,0-.236-.037,2.847,2.847,0,0,0-2.062.6L32.348,30.4a4.592,4.592,0,0,0-1.092-2.918,1.8,1.8,0,0,0-2.43-.267l-.944.72h-.015a4.5,4.5,0,0,0,1.058-2.924A1.7,1.7,0,0,0,27.2,23.341H13.746A6.505,6.505,0,0,0,8,26.657H4.431a4.725,4.725,0,0,0-3.318,1.314A4.435,4.435,0,0,0-.254,31.182v6.634a4.438,4.438,0,0,0,1.367,3.212,4.729,4.729,0,0,0,3.318,1.317ZM54.047,46.81H44.193a3.933,3.933,0,0,1-3.33-1.82l1.41-1.113H49.12a.9.9,0,0,0,.638-.262.849.849,0,0,0,.25-.625V28.762l.066.014A6.086,6.086,0,0,0,51.7,29a6.021,6.021,0,0,0,2.676-.627,4.078,4.078,0,0,1,2.894-.287l.637.176V43.043a3.681,3.681,0,0,1-1.12,2.661,3.918,3.918,0,0,1-2.736,1.106Zm-8.94-8.7a2.787,2.787,0,0,0-.758-.626l.9-.71A2.7,2.7,0,0,0,46.275,34.4a2.731,2.731,0,0,0-1.467-2.148,2.674,2.674,0,0,0-.33-3.6,2.888,2.888,0,0,0-3.727-.136l-.176.128a2.394,2.394,0,0,0-.3-.588V23.086h7.895v19H44.533l.171-.132a2.677,2.677,0,0,0,.4-3.847Zm.954-36.326h6.184V5.74H46.061Zm1.71,5.74H50.4V9.566H47.772Zm-2.194,3.826h7.085a.9.9,0,0,1,.9.844v2.472H44.746V12.2a.84.84,0,0,1,.832-.844Zm-1.384,5.1h9.854a3.917,3.917,0,0,1,2.736,1.1,3.674,3.674,0,0,1,1.12,2.657V26.4l-.142-.043a5.992,5.992,0,0,0-4.235.419,4.151,4.151,0,0,1-2.951.279l-.567-.154V22.24a.92.92,0,0,0-.888-.94H40.272V20.211a3.851,3.851,0,0,1,3.922-3.758Zm-13.7,14.3a2.889,2.889,0,0,1-1.1,1.975L25.9,35.5a.879.879,0,0,0-.332.836.9.9,0,0,0,.584.695.946.946,0,0,0,.912-.147l3.5-2.768L37.3,28.789a1,1,0,0,1,1.379.136.93.93,0,0,1-.14,1.336L29.775,37.19a.879.879,0,0,0-.332.836.9.9,0,0,0,.584.694.944.944,0,0,0,.912-.147l8.766-6.929,2.21-1.747a1,1,0,0,1,1.379.136.931.931,0,0,1-.141,1.337l-1.473,1.164-2.21,1.746-7.293,5.765a.88.88,0,0,0-.337.838.9.9,0,0,0,.586.7.943.943,0,0,0,.914-.151l9.383-7.416.12-.095a1,1,0,0,1,.972-.159.957.957,0,0,1,.623.74.935.935,0,0,1-.356.891L41.5,37.429a.9.9,0,0,0-.123.118,2.671,2.671,0,0,0-.245.173l-5.083,4.018a.878.878,0,0,0-.332.836.9.9,0,0,0,.584.694.945.945,0,0,0,.912-.147L42.3,39.1a1,1,0,0,1,1.379.136.93.93,0,0,1-.14,1.337L31.59,50.021A5.652,5.652,0,0,1,27.3,51.169a.944.944,0,0,0-.831.168l-4.052,3.2a2.947,2.947,0,0,1-4.054-.4L14.036,49a2.735,2.735,0,0,1,.412-3.929l2.461-1.945.045-.038.723-.651a.876.876,0,0,0,.267-.867,4.578,4.578,0,0,1,1.622-4.7L29.9,28.695a2.845,2.845,0,0,1,.595,2.063Zm-28.908.425a2.675,2.675,0,0,1,.827-1.949,2.85,2.85,0,0,1,2.016-.791H7.285a5.533,5.533,0,0,0-.163,1.384,7.59,7.59,0,0,0,2.353,5.494l.388.369a.943.943,0,0,0,1.305,0,.875.875,0,0,0,0-1.265l-.387-.377a5.914,5.914,0,0,1-1.814-4.263,4.732,4.732,0,0,1,4.781-4.655H27.08a2.911,2.911,0,0,1-3.022,2.806H18.593a.93.93,0,0,0-.921.919,2.571,2.571,0,0,1-2.6,2.53.913.913,0,0,0-.921.9.862.862,0,0,0,.272.622.917.917,0,0,0,.649.247,4.338,4.338,0,0,0,4.342-3.432h6.2l-2.4,1.913H21.445a.933.933,0,0,0-.9.72.9.9,0,0,0,.519,1.015L18.4,35.474a6.361,6.361,0,0,0-2.356,5.99l-.324.293-1.379,1.091A5.756,5.756,0,0,1,9.108,38.6.923.923,0,0,0,8,37.93a.9.9,0,0,0-.572.383.846.846,0,0,0-.116.665,6.67,6.67,0,0,0,.615,1.581h-3.5a2.856,2.856,0,0,1-2.016-.793,2.68,2.68,0,0,1-.827-1.95Zm0,0" transform="translate(0)" fill="#fff"/>
    <path id="Path_471" data-name="Path 471" d="M291.361,94.481a4.181,4.181,0,0,0,.8-4.777.811.811,0,0,0-.049-.088l-2.942-4.663a.907.907,0,0,0-1.533,0L284.7,89.617a.857.857,0,0,0-.049.088,4.176,4.176,0,0,0,6.711,4.776ZM286.735,93.2a2.366,2.366,0,0,1-.475-2.663l2.148-3.4,2.148,3.4a2.365,2.365,0,0,1-3.82,2.663Zm0,0" transform="translate(-254.452 -75.78)" fill="#fff"/>
    <path id="Path_472" data-name="Path 472" d="M179.6,140.764a3.51,3.51,0,1,0,3.51-3.51A3.51,3.51,0,0,0,179.6,140.764Zm5.208,0a1.7,1.7,0,1,1-1.7-1.7A1.7,1.7,0,0,1,184.806,140.764Zm0,0" transform="translate(-160.875 -123.261)" fill="#fff"/>
    <path id="Path_473" data-name="Path 473" d="M87.113,90.772a3.51,3.51,0,1,0,3.51-3.51A3.51,3.51,0,0,0,87.113,90.772Zm5.208,0a1.7,1.7,0,1,1-1.7-1.7A1.7,1.7,0,0,1,92.322,90.772Zm0,0" transform="translate(-78.149 -78.228)" fill="#fff"/>
    <path id="Path_474" data-name="Path 474" d="M309.578,523.2a3.51,3.51,0,1,0,3.51-3.51A3.51,3.51,0,0,0,309.578,523.2Zm5.208,0a1.7,1.7,0,1,1-1.7-1.7A1.7,1.7,0,0,1,314.786,523.2Zm0,0" transform="translate(-277.14 -466.712)" fill="#fff"/>
    <path id="Path_475" data-name="Path 475" d="M413.309,515.7a3.51,3.51,0,1,0,3.51-3.51A3.51,3.51,0,0,0,413.309,515.7Zm5.208,0a1.7,1.7,0,1,1-1.7-1.7A1.7,1.7,0,0,1,418.517,515.7Zm0,0" transform="translate(-369.925 -459.988)" fill="#fff"/>
  </g>
</svg>
