<svg xmlns="http://www.w3.org/2000/svg" width="60.003" height="60.027" viewBox="0 0 60.003 60.027">
  <g id="hand-sanitizer" transform="translate(-0.103)">
    <path id="Path_480" data-name="Path 480" d="M296.6,335.919h1.76v4.226H296.6Z" transform="translate(-261.718 -296.513)" fill="#fff"/>
    <path id="Path_481" data-name="Path 481" d="M322.042,273.771h-14.37v1.76h14.37v.293a1.468,1.468,0,0,1-1.466,1.466H301.806a1.466,1.466,0,0,1-1.347-.887l-1.616.7a3.224,3.224,0,0,0,2.963,1.951h18.769a3.23,3.23,0,0,0,3.226-3.226v-27.6h-1.76Z" transform="translate(-263.695 -219.105)" fill="#fff"/>
    <path id="Path_482" data-name="Path 482" d="M266.961,15.954h-3.226V8.915h-3.519V1.76h3.226V0H241.886L238.1,5.044,239.511,6.1l3.255-4.34h12.171V8.915h-3.519v7.038h-3.226a3.23,3.23,0,0,0-3.226,3.226V37.646h1.76V19.18a1.468,1.468,0,0,1,1.466-1.466h18.769a1.468,1.468,0,0,1,1.466,1.466v8.179h1.76V19.18A3.23,3.23,0,0,0,266.961,15.954ZM256.7,1.76h1.76V8.915H256.7Zm5.279,14.194h-8.8V10.675h8.8Z" transform="translate(-210.081)" fill="#fff"/>
    <path id="Path_483" data-name="Path 483" d="M138.829,423.243,125.343,431.7l-14.227-4.559-.537,1.676,15.006,4.808,14.179-8.886Z" transform="translate(-97.516 -373.593)" fill="#fff"/>
    <path id="Path_484" data-name="Path 484" d="M.1,436.771v1.76H6.126l5.261,1.686.537-1.676L6.4,436.771Z" transform="translate(0 -385.534)" fill="#fff"/>
    <path id="Path_485" data-name="Path 485" d="M4.385,327.473c.1-.053,10.241-5.268,15.386-.561l.043.039.048.033a2.3,2.3,0,0,1,.423.423H15v1.76H21.41c.217.4.415.793.569,1.128l.235.513h9.093a1.936,1.936,0,1,1,0,3.871H19.342v1.76H31.307a3.7,3.7,0,0,0,3.513-2.551l10.712-5.843a4.747,4.747,0,0,1,5.561.74L42.8,333.98l.934,1.491,9.944-6.232-.577-.807A6.509,6.509,0,0,0,44.69,326.5l-9.8,5.345a3.7,3.7,0,0,0-3.584-2.8H23.333a11.121,11.121,0,0,0-2.413-3.47c-5.691-5.145-15.583-.547-17.154.235H.1v1.76H4.194Z" transform="translate(0 -285.264)" fill="#fff"/>
    <path id="Path_486" data-name="Path 486" d="M341.3,192v4.692H336.6v6.452H341.3v4.692h6.452v-4.692h4.692v-6.452h-4.692V192Zm9.385,6.452v2.933h-4.692v4.692h-2.933v-4.692h-4.692v-2.933h4.692V193.76h2.933v4.692Z" transform="translate(-297.026 -169.477)" fill="#fff"/>
    <path id="Path_487" data-name="Path 487" d="M191.165,211.248a5.576,5.576,0,0,0,4.938-2.9,5.159,5.159,0,0,0-.242-5.359l-4.7-7.129-4.7,7.129a5.159,5.159,0,0,0-.242,5.359A5.576,5.576,0,0,0,191.165,211.248Zm-3.226-7.286,3.226-4.9,3.226,4.9a3.424,3.424,0,0,1,.163,3.557,3.9,3.9,0,0,1-6.778,0A3.424,3.424,0,0,1,187.939,203.962Z" transform="translate(-163.73 -172.888)" fill="#fff"/>
    <path id="Path_488" data-name="Path 488" d="M225.6,120.5h1.76v4.692H225.6Z" transform="translate(-199.047 -106.364)" fill="#fff"/>
    <path id="Path_489" data-name="Path 489" d="M225.6,90.5h1.76v1.76H225.6Z" transform="translate(-199.047 -79.884)" fill="#fff"/>
    <path id="Path_490" data-name="Path 490" d="M265.6,150.5h1.76v4.692H265.6Z" transform="translate(-234.355 -132.845)" fill="#fff"/>
    <path id="Path_491" data-name="Path 491" d="M265.6,120.5h1.76v1.76H265.6Z" transform="translate(-234.355 -106.364)" fill="#fff"/>
    <path id="Path_492" data-name="Path 492" d="M185.6,150.5h1.76v4.692H185.6Z" transform="translate(-163.739 -132.845)" fill="#fff"/>
    <path id="Path_493" data-name="Path 493" d="M185.6,120.5h1.76v1.76H185.6Z" transform="translate(-163.739 -106.364)" fill="#fff"/>
    <path id="Path_494" data-name="Path 494" d="M344.1,466h1.76v1.76H344.1Z" transform="translate(-303.646 -411.334)" fill="#fff"/>
    <path id="Path_495" data-name="Path 495" d="M97.1,359.25h1.76v1.76H97.1Z" transform="translate(-85.621 -317.107)" fill="#fff"/>
    <path id="Path_496" data-name="Path 496" d="M231.1,283h1.76v1.76H231.1Z" transform="translate(-203.902 -249.802)" fill="#fff"/>
  </g>
</svg>
