<svg xmlns="http://www.w3.org/2000/svg" width="53.956" height="62" viewBox="0 0 53.956 62">
  <g id="medical-mask" transform="translate(-5.044 -1)">
    <path id="Path_476" data-name="Path 476" d="M46.213,43.387,38,40.307V37.521A13.02,13.02,0,0,0,44.83,28H45a3.994,3.994,0,0,0,2.171-7.351l1.878-5.633a8.773,8.773,0,0,0-3.672-10.21A25.014,25.014,0,0,0,32.1,1H31.9A25.008,25.008,0,0,0,18.624,4.806a8.772,8.772,0,0,0-3.673,10.211l1.878,5.633A3.994,3.994,0,0,0,19,28h.17A13.018,13.018,0,0,0,26,37.521v2.786l-8.213,3.08A12.056,12.056,0,0,0,10,54.623V62a1,1,0,0,0,1,1H53a1,1,0,0,0,1-1V54.623A12.056,12.056,0,0,0,46.213,43.387ZM26.819,42.136,30.5,45.083l-2.284,2.284-2.709-4.74Zm10.362,0,1.309.491-2.709,4.74L33.5,45.083ZM23.566,25,21,20.723V18.414l3.293,3.293a1,1,0,0,0,1.262.125L30,18.869V21a1,1,0,0,0,1.64.768L36,18.135V21a1,1,0,0,0,1.581.814L43,17.943v2.78L40.434,25ZM42,30.556V26.277l1-1.667V26A10.919,10.919,0,0,1,42,30.556ZM45,26V22a2,2,0,0,1,0,4ZM16.849,14.384A6.771,6.771,0,0,1,19.684,6.5,23.014,23.014,0,0,1,31.9,3h.21A23.02,23.02,0,0,1,44.317,6.5a6.771,6.771,0,0,1,2.835,7.882l-1.881,5.643C45.179,20.021,45.092,20,45,20V16a1,1,0,0,0-1.581-.814L38,19.057V16a1,1,0,0,0-1.64-.768L32,18.865V17a1,1,0,0,0-1.554-.832l-5.318,3.545-4.42-4.42A1,1,0,0,0,19,16v4c-.092,0-.179.021-.27.027ZM17,24a2,2,0,0,1,2-2v4A2,2,0,0,1,17,24Zm4,.61,1,1.667v4.279A10.919,10.919,0,0,1,21,26Zm3,8.916V27H40v6.526a10.948,10.948,0,0,1-16,0ZM32,39a12.94,12.94,0,0,0,4-.636V40.52l-4,3.2-4-3.2V38.364A12.94,12.94,0,0,0,32,39ZM52,61H47V54H45v7H19V54H17v7H12V54.623a10.046,10.046,0,0,1,6.489-9.363l5.124-1.922L27.132,49.5a1,1,0,0,0,1.575.211L32,46.414l3.293,3.293a1,1,0,0,0,1.575-.211l3.519-6.158,5.124,1.922A10.046,10.046,0,0,1,52,54.623Z" fill="#fff"/>
    <path id="Path_477" data-name="Path 477" d="M38,54h5v2H38Z" fill="#fff"/>
    <path id="Path_478" data-name="Path 478" d="M58.447,30.394a3.751,3.751,0,0,1-1.981-2.51l-.492-2.111a1,1,0,0,0-1.948,0l-.492,2.111a3.754,3.754,0,0,1-1.981,2.51,1,1,0,0,0-.509.917,1.077,1.077,0,0,0,.6.917,3.763,3.763,0,0,1,1.95,2.386l.444,1.647a1,1,0,0,0,1.93,0l.444-1.647a3.822,3.822,0,0,1,2.038-2.43,1,1,0,0,0,0-1.789ZM55,32.8a5.759,5.759,0,0,0-1.229-1.531A5.746,5.746,0,0,0,55,29.656a5.746,5.746,0,0,0,1.229,1.616A5.759,5.759,0,0,0,55,32.8Z" fill="#fff"/>
    <path id="Path_479" data-name="Path 479" d="M12.447,41.183a1,1,0,0,0,0-1.789,3.751,3.751,0,0,1-1.981-2.51l-.492-2.111a1,1,0,0,0-1.948,0l-.492,2.111a3.754,3.754,0,0,1-1.981,2.51,1,1,0,0,0-.509.917,1.077,1.077,0,0,0,.6.917,3.763,3.763,0,0,1,1.95,2.386l.444,1.647a1,1,0,0,0,1.93,0l.444-1.647a3.822,3.822,0,0,1,2.038-2.43ZM9,41.8a5.759,5.759,0,0,0-1.229-1.531A5.746,5.746,0,0,0,9,38.656a5.746,5.746,0,0,0,1.229,1.616A5.759,5.759,0,0,0,9,41.8Z" fill="#fff"/>
  </g>
</svg>
